<svg xmlns="http://www.w3.org/2000/svg" width="723.61" height="781.289" viewBox="0 0 723.61 781.289"><path d="M-700.962 98.284c-3.571.718-9.002-3.682-10.327 1.196-.755 6.701 7.124 2.835 10.42 5.744 3.534 2.522.552 11.634 3.92 14.01 1.068.736 2.467 0 2.633-1.142 3.48-6.002-2.08-14.157.184-22.165-2.135-.184-2.559 1.418-6.83 2.357" style="fill:#f6a0a6;fill-opacity:1;fill-rule:evenodd;stroke:none;stroke-width:1.33333" transform="matrix(2.62973 0 0 2.62973 2142.433 -87.42)"/><path d="M-705.6 129.23c.496 1.251 1.362 1.417 2.264.496 2.835-2.908.11-7.529-.166-10.898l-.11-6.277c-.46-5.431-4.198-1.896-8.726-2.265-3.093 0-6.665-.865-8.818.682-.074 6.848 6.388 1.859 8.45 6.461-.958 3-3.296 2.909-5.155 3.387-3.94.571-8.174-3.847-11.285.755l-.092.258v.663l.092.184.147.202.019.184.129.184.184.092.092.074c3.608 2.817 8.763.552 8.836 5.467 6.922-.202 1.105 11.93 5.615 12.224 3.498-2.485 1.786-7.713 2.08-11.377.387-3.277.092-8.026 2.725-10.585 4.786 1.086 1.97 6.922 3.718 10.088" style="fill:#f6a0a6;fill-opacity:1;fill-rule:evenodd;stroke:none;stroke-width:1.33333" transform="matrix(2.62973 0 0 2.62973 2142.433 -87.42)"/><path d="M-724.801 152.057c1.049.276 1.51-1.105 2.043-2.062-.644-5.247.479-10.88 1.951-16.679.516-1.914-.718-3.111-2.153-3.019-11.617 0-9.647-5.154-14.893-.644-.774 1.104-.847 2.062.405 2.632 4.27.902 6.995-.092 9.628 3.719 2.742 3.847-1.142 16.163 3.019 16.053" style="fill:#f6a0a6;fill-opacity:1;fill-rule:evenodd;stroke:none;stroke-width:1.33333" transform="matrix(2.62973 0 0 2.62973 2142.433 -87.42)"/><path d="M-736.657 160.617c.59.257 1.344.165 1.62-.7 1.307-1.362 1.031-3.903 1.105-5.89 0-5.063 3.405-10.291 2.062-14.636-6.775.166-9.297-2.835-14.36-3.571-.92.294-2.337.552-2.54 2.375 1.988 3.737 5.468 3.516 8.45 5.964 5.799 3.59.497 13.917 3.663 16.458" style="fill:#f6a0a6;fill-opacity:1;fill-rule:evenodd;stroke:none;stroke-width:1.33333" transform="matrix(2.62973 0 0 2.62973 2142.433 -87.42)"/><path d="M-748.365 168.956c4.694-4.4 3.258-12.573 6.001-18.777l-.662-2.32c-5.155-.7-10.217-2.356-13.641-6.517-.995.59-2.412 1.528-2.32 3.112 2.725 5.522 9.518 3.829 11.432 10.806.957 4.528-4.363 10.787-.81 13.696" style="fill:#f6a0a6;fill-opacity:1;fill-rule:evenodd;stroke:none;stroke-width:1.33333" transform="matrix(2.62973 0 0 2.62973 2142.433 -87.42)"/><path d="M-768.652 151.1c-.368 3 4.86 3 5.983 5.338 4.234 6.314-3.277 16.273-.847 18.317.755.755 1.418.681 1.989-.736l6-16.624c1.032-5.246-3.478-5.596-6.755-6.572-3.167-.46-6.443-2.154-6.37.276M-680.51 55.133c-2.613.736-6.737.092-9.314 1.951-2.982 3.848 3.48 4.566 3.13 7.42-1.234 1.987-2.91 2.447-4.603 2.447-2.264.166-4.031 1.031-4.29 3.664.627 3.369 4.198 2.006 5.984 2.945-3.111 2.375-7.622-.515-9.334 5.284-.533 3.958 5.854.202 8.266 3.958-.718 3.571-4.216 3.645-5.43 3.645-3.185 0-7.346-1.768-8.634 2.632.662 6.314 6.111 1.418 9.186 3.682 3.792 1.05 4.712 5.523 5.725 10.235.386 1.4 2.098 3.553 3.387.94.829-5.763-3.166-10.623-1.289-17.121.571-1.418 1.676-1.105 2.504-.81 2.099 2.117 1.97 8.8 5.376 6.848 3.479-5.836-4.419-11.358-2.467-18.022l.939-1.712c3-1.657 3.203 5.228 6.13 6.13.92-.405 1.84-.405 2.227-3.406.092-3.663-3.737-5.062-3.258-10.585.166-3.111-.295-9.02-.203-9.02.48.257-3.368 2.908-4.031-1.105" style="fill:#f6a0a6;fill-opacity:1;fill-rule:evenodd;stroke:none;stroke-width:1.33333" transform="matrix(2.62973 0 0 2.62973 2142.433 -87.42)"/><path d="m-616.114 40.166-15.39 39.911c-13.733-18.133-37.536-20.95-56.958-17.378-30.651 5.56-55.687 20.802-72.108 55.08-7.88 16.44-5.173 39.358 8.652 52.779 12.72 10.493 29.915 13.88 47.183 10.125l-17.379 28.81c-12.757 1.528-21.373 1.97-37.978-.295-21.41-2.89-45.71-15.482-51.545-36.32-11.726-41.79 11.635-80.135 46.207-107.105 22.017-16.126 48.03-27.871 74.299-31.037 44.034-5.357 75.017 5.43 75.017 5.43" style="fill:#e51837;fill-opacity:1;fill-rule:evenodd;stroke:none;stroke-width:1.33333" transform="matrix(2.62973 0 0 2.62973 2142.433 -87.42)"/><path d="M-556.653 161.445c-7.585-25.625-79.564-17.102-78.901-17.304 0 0-31.627 70.893-39.156 90.977-2.964 9.555.092 24.687 7.897 30.983 0 0-76.968 0-77.723-.313l66.53-111.964c2.54-6.664 6.96-11.414 4.621-19.054-2.356-4.841-33.118-14.175-33.118-14.175l166.97.387s-12.573 29.473-17.12 40.463" style="fill:#20358c;fill-opacity:1;fill-rule:evenodd;stroke:none;stroke-width:1.33333" transform="matrix(2.62973 0 0 2.62973 2142.433 -87.42)"/><path d="m-469.891 116.73 21.133 6.093a62.6 62.6 0 0 1-11.634 14.285 47.9 47.9 0 0 1-15.04 8.929A62.6 62.6 0 0 1-495.24 149c-9.205.239-16.366-.829-21.65-3.222a22.1 22.1 0 0 1-11.376-12.37c-2.357-5.818-2.117-13.495.515-23.03 3.7-12.371 10.31-22.202 19.827-29.032q14.267-9.849 34.867-10.309c10.842-.239 18.74 1.583 23.766 5.265 4.75 4.032 7.676 9.812 8.192 17.71l-24.576 4.75c-.24-2.1-.516-3.94-1.068-4.75a10.3 10.3 0 0 0-4.197-4.197 16.6 16.6 0 0 0-6.61-1.381 21.54 21.54 0 0 0-15.592 6.664c-3.424 3.166-6.075 8.137-8.173 14.764-2.375 8.468-2.909 14.304-.774 17.194 1.823 3.148 5.523 4.731 10.549 4.51 5.265 0 9.517-1.362 12.665-3.755 3.443-2.633 6.333-6.296 8.984-11.082M-425.525 71.83l23.545-.276-8.21 27.797c3.957-3.221 7.915-5.357 11.34-6.664q5.577-1.877 11.91-1.84c6.59-.277 11.082 1.583 13.715 5.007q3.958 4.768.791 15.905l-10.29 34.572-23.766.276 8.965-29.877c1.068-3.425 1.068-6.039 0-7.364-1.05-1.362-2.89-2.136-5.541-2.136a12.9 12.9 0 0 0-7.916 3.13c-2.375 1.878-4.216 5.339-5.817 10.328l-7.677 26.177-23.748.203zM-354.485 91.675l23.545-.24-16.365 54.344-23.49.57zM-318.808 91.104l21.925-.276-2.65 8.984c4.233-3.682 8.486-6.333 12.425-7.898 3.7-1.583 8.174-2.411 12.924-2.65 6.627 0 11.1 1.564 13.751 4.988q4.4 5.155.792 15.887l-10.31 34.867-23.747.258 8.947-30.08q1.638-5.137 0-7.162c-1.05-1.307-2.596-2.099-5.265-2.099a12.9 12.9 0 0 0-7.916 2.89c-2.375 2.136-4.492 5.542-5.799 10.567l-7.971 26.123-23.472.258zM-183.023 119.638c2.117-7.4 2.633-13.144 1.344-17.71a15.65 15.65 0 0 0-8.763-10.014c-4.455-2.411-11.082-3.48-19.79-3.48-10.842.314-20.36 3.002-27.963 8.524a38.66 38.66 0 0 0-15.647 20.618c-1.565 6.02-1.565 11.322 0 15.556a18.4 18.4 0 0 0 8.762 9.738c4.234 1.878 10.291 2.89 18.465 2.651 9.517 0 16.88-1.307 22.698-3.7 5.854-2.375 11.1-6.333 16.402-11.837l-22.716-1.62a29.5 29.5 0 0 1-5.044 3.424 16.6 16.6 0 0 1-7.125 1.602c-3.682 0-6.314-1.05-7.934-3.406-1.05-1.62-1.307-4.29-.773-7.419l47.293-.791zm-45.212-7.124c1.62-3.443 3.184-5.799 5.062-7.364 3.148-2.687 6.333-4.234 10.29-4.234 3.149 0 5.56.773 6.886 2.633 1.564 1.601 1.84 4.473 1.03 8.689zM-182.25 128.622l24.024-2.099c.295 2.375 1.068 4.179 2.67 5.265 1.307.847 3.424 1.362 6.295 1.362 3.204 0 5.855-.515 7.953-1.877 1.565-.755 2.393-2.136 2.89-3.461.534-1.289 0-2.614-1.546-3.424-1.086-.534-4.234-1.289-9.517-2.08-7.677-1.05-13.237-2.062-15.887-3.167a13.26 13.26 0 0 1-6.573-5.338 10.86 10.86 0 0 1-.515-8.671q1.602-5.56 6.314-9.5c3.185-2.669 6.867-4.51 11.359-5.835 4.51-1.344 10.327-2.099 17.194-2.099 7.4 0 12.647.24 15.832 1.326a12.9 12.9 0 0 1 7.382 4.473 15.46 15.46 0 0 1 3.203 8.45l-22.754 2.136c-.24-1.602-.773-2.91-1.86-3.738a10.68 10.68 0 0 0-6.037-1.583 14.7 14.7 0 0 0-6.351 1.344c-1.307.829-2.357 1.841-2.633 2.89-.258 1.363 0 2.412 1.326 3.222q1.97.755 9.517 1.565c7.64.791 13.18 1.86 16.366 3.185a12.9 12.9 0 0 1 7.106 5.78c1.362 2.65 1.362 5.56.57 8.726a25.8 25.8 0 0 1-6.112 9.204c-2.908 2.983-7.105 5.32-12.131 7.143-5.265 1.896-11.892 2.67-19.827 2.927-11.064 0-18.74-1.307-22.68-3.921-3.718-2.945-5.578-6.903-5.578-12.205M-37.26 117.797c2.136-7.419 2.67-13.199 1.326-17.71-1.326-4.473-4.198-7.657-8.69-9.977-4.252-2.43-10.824-3.498-19.826-3.498-10.806.295-20.084 2.872-27.982 8.469-7.676 5.246-12.941 12.168-15.353 20.618q-2.761 9.094 0 15.85a17.12 17.12 0 0 0 8.726 9.499c3.958 1.822 10.033 2.872 18.262 2.67 9.48 0 17.139-1.308 22.698-3.738 5.799-2.32 11.377-6.37 16.347-11.874l-22.698-1.601a27.6 27.6 0 0 1-5.007 3.48 18.4 18.4 0 0 1-7.161 1.564c-3.7 0-6.315-1.05-7.916-3.443-1.05-1.601-1.307-4.27-.792-7.419l47.293-.773zm-44.863-7.106c1.326-3.203 2.872-5.835 4.731-7.474 3.185-2.632 6.61-4.197 10.31-4.197 3.147 0 5.54.81 7.124 2.67 1.325 1.527 1.583 4.491 1.086 8.688zM-326.466 78.144c-1.307 5.32-7.64 9.518-14.267 9.518-6.572 0-11.082-4.198-10.033-9.518 1.325-5.32 7.658-9.462 14.248-9.462s11.101 4.142 10.052 9.462" style="fill:#e51837;fill-opacity:1;fill-rule:evenodd;stroke:none;stroke-width:1.33333" transform="translate(553.14 553.244)scale(.93429)"/><path d="m-515.067 160.101 98.82-1.362-5.302 16.918-33.265.24-16.384 51.545-32.768.22 16.66-51.195-33.026.497zM-400.912 188.599q3.92-1.234 11.045-1.62c3.976 0 6.37.533 7.4 1.325q2.025 1.602.81 4.786c-3.957 1.031-7.64 1.841-11.1 2.596q-5.155.828-22.183 3.203-14.286 1.97-20.6 5.523c-4.252 2.632-6.848 5.56-8.192 9.517-1.325 3.977 0 7.4 3.94 10.015 3.737 2.706 10.327 3.976 19.292 3.719 6.885 0 12.96-.792 18.778-2.1 3.958-1.012 8.431-2.89 12.923-5.3v3.184c0 .497.534 1.601 1.325 2.89l27.172-.515a14.7 14.7 0 0 1-1.27-5.044c0-1.307.515-3.13 1.012-5.265l7.18-21.889a14.2 14.2 0 0 0 .24-7.4 11.05 11.05 0 0 0-3.959-5.836c-2.908-1.86-6.885-3.203-12.15-3.663q-7.51-.847-20.618-.847c-5.541 0-10.548.57-15.574 1.068a55.2 55.2 0 0 0-11.616 2.393 33.1 33.1 0 0 0-10.033 4.768 27.6 27.6 0 0 0-7.124 7.382l27.466 1.601a14.7 14.7 0 0 1 5.836-4.491m15.021 17.157a11.8 11.8 0 0 1-3.405 5.78 18.4 18.4 0 0 1-7.4 3.719 23.9 23.9 0 0 1-9.555 1.86c-3.166 0-5.265-.516-6.572-1.308-1.344-1.086-1.86-2.135-1.344-3.719.552-1.307 1.602-2.374 3.719-3.46 1.84-1.05 5.799-2.08 12.15-3.204 4.75-.7 9.241-1.785 13.457-2.595zM-333.038 176.449l29.289-.571-16.108 49.447-29.05.497zM-281.014 243.568l7.382-23.545c2.393 1.86 5.265 3.405 8.45 4.215 3.46 1.105 7.4 1.363 11.892 1.363 9.223 0 17.691-2.412 25.055-6.61 7.695-4.528 12.702-10.824 15.334-19.034 2.412-7.4 1.584-13.733-2.356-18.777-3.958-4.713-11.12-7.364-21.115-7.088-5.32 0-10.328.773-14.82 2.375-3.7 1.012-7.658 3.166-12.407 6.314l2.375-7.4-27.448.276-21.926 68.426zm20.323-52.576c3.204-1.86 6.59-2.909 10.291-2.909 3.461 0 6.093.773 7.677 2.633q2.78 2.798.791 8.652c-1.325 4.547-3.424 7.437-6.332 9.278a17.5 17.5 0 0 1-9.518 2.909c-3.7 0-6.609-.755-8.689-2.614q-2.835-2.78-.792-8.726c1.289-4.271 3.424-7.4 6.572-9.223M-118.867 200.988c2.135-6.609 2.375-11.874.276-15.85-2.099-4.234-5.817-7.143-11.358-9.26-5.836-2.062-13.973-2.909-24.834-2.909-13.457.276-24.797 2.67-34.057 7.732-9.002 4.676-14.8 11.064-17.433 18.667-1.565 5.578-1.326 10.106 1.307 14.304 2.393 3.994 6.37 6.609 11.376 8.45q7.916 2.742 22.957 2.411c11.652 0 20.894-1.362 28.018-3.48a55.2 55.2 0 0 0 19.274-10.842l-28.258-1.289a24 24 0 0 1-6.075 3.166 35 35 0 0 1-8.744 1.344c-4.492.24-7.916-.81-9.978-2.927-1.62-1.583-2.172-3.7-1.62-6.866l58.615-.81zm-56.24-6.333c1.583-2.89 3.424-5.302 5.56-6.59 3.681-2.688 7.658-3.719 12.389-3.94 3.976 0 6.867.773 9.002 2.338 1.84 1.602 2.375 4.234 1.84 7.916zM-99.298 173.558l29.325-.57-16.108 49.428-29.05.515zM-65.794 160.838c-1.289 5.044-9.186 9.278-17.415 9.278-8.192 0-13.494-4.234-12.15-9.536 1.583-5.007 9.26-9.241 17.397-8.965 8.21 0 13.751 3.958 12.168 9.223M-299.258 163.47c-1.601 5.044-9.26 9.315-17.433 9.315s-13.439-4.27-12.15-9.315c1.583-5.007 9.26-9.241 17.415-9.241 8.229 0 13.512 4.234 12.168 9.241" style="fill:#20358c;fill-opacity:1;fill-rule:evenodd;stroke:none;stroke-width:1.33333" transform="translate(553.14 553.244)scale(.93429)"/></svg>